<svg xmlns="http://www.w3.org/2000/svg" width="88" height="88" viewBox="0 0 88 88">
  <g id="グループ_127730" data-name="グループ 127730" transform="translate(11036.725 22600.725)">
    <rect id="長方形_76237" data-name="長方形 76237" width="88" height="88" rx="8" transform="translate(-11036.725 -22600.725)" fill="#007853"/>
    <path id="パス_997340" data-name="パス 997340" d="M2.183,8.352a1.432,1.432,0,0,0,1.2.528,1.762,1.762,0,0,0,1.2-.528L12.678-.1V20.114a1.683,1.683,0,0,0,1.69,1.69h2.254a1.683,1.683,0,0,0,1.69-1.69V-.1l8.1,8.452a1.762,1.762,0,0,0,1.2.528,1.432,1.432,0,0,0,1.2-.528l1.55-1.55a1.63,1.63,0,0,0,.493-1.2,1.63,1.63,0,0,0-.493-1.2L16.693-9.257a1.63,1.63,0,0,0-1.2-.493,1.63,1.63,0,0,0-1.2.493L.634,4.407A1.63,1.63,0,0,0,.141,5.6,1.63,1.63,0,0,0,.634,6.8Z" transform="translate(-11009.001 -22585.262)" fill="#fff"/>
    <path id="パス_997343" data-name="パス 997343" d="M2.2,4.113c.285-.362.4-.514.685-.837C4.314,1.545,5.417.156,6.292-1c.78-1.027.8-1.046,1.085-1.046.228,0,.419.114.723.457a111.806,111.806,0,0,0,8.752,9.019l1.427-3.1a14.147,14.147,0,0,1-1.922-1.579A68.506,68.506,0,0,1,10.364-3.25c-1.5-1.712-2-2.036-3.025-2.036a2.636,2.636,0,0,0-1.37.362,5.982,5.982,0,0,0-1.5,1.541C3.362-1.975,1.574.156,1.022.708a4.484,4.484,0,0,1-.742.628ZM14.759-6.637a2.119,2.119,0,0,0-2.112,2.112,2.119,2.119,0,0,0,2.112,2.112,2.1,2.1,0,0,0,2.093-2.112A2.091,2.091,0,0,0,14.759-6.637Zm0,1.18a.93.93,0,0,1,.913.932.93.93,0,0,1-.913.932.934.934,0,0,1-.932-.932A.934.934,0,0,1,14.759-5.457ZM19.04,1.83c.742-.076,1.827-.114,3.482-.114h9.608c1.484,0,2.74.038,3.5.1v-3.12a24.979,24.979,0,0,1-3.482.133H22.522a23.766,23.766,0,0,1-3.482-.152Zm29.967-8.5a11.6,11.6,0,0,1,1.56,2.645L52.2-4.81a10.145,10.145,0,0,0-1.579-2.569Zm2.245-.97a14.291,14.291,0,0,1,1.541,2.569l1.6-.78A10.461,10.461,0,0,0,52.813-8.33ZM38.942-5.324A22.778,22.778,0,0,1,44.194-2.66L45.64-5.153a31.336,31.336,0,0,0-5.251-2.473Zm-1.5,4.643a22.254,22.254,0,0,1,5.289,2.873l1.389-2.55a26.346,26.346,0,0,0-5.175-2.626Zm1.275,9.19c.4-.114.761-.209,1.351-.323,4.871-.913,8.029-2.531,10.56-5.442a17.132,17.132,0,0,0,2.911-4.871,10.374,10.374,0,0,1-2.378-2.036,14.2,14.2,0,0,1-2.169,4.2,11.336,11.336,0,0,1-5.4,4.148,17.032,17.032,0,0,1-5.67,1.256Zm26.485-13a3.7,3.7,0,0,1,1.769.609A4.624,4.624,0,0,1,69,.1a5.226,5.226,0,0,1-2.626,4.681,9.539,9.539,0,0,1-3.767.913,7.8,7.8,0,0,1,1.408,2.7,13.582,13.582,0,0,0,3.025-.78A7.464,7.464,0,0,0,71.82.27c0-4.452-3.044-7.306-7.82-7.306A8.827,8.827,0,0,0,57.3-4.3a8.208,8.208,0,0,0-2.131,5.651c0,3.273,1.674,5.575,4.034,5.575,1.636,0,2.892-1.123,3.958-3.539A26.844,26.844,0,0,0,65.2-4.487Zm-2.778.038A24.5,24.5,0,0,1,60.9,1.678c-.609,1.541-1.2,2.283-1.75,2.283-.742,0-1.351-1.161-1.351-2.588A6.238,6.238,0,0,1,60.138-3.5,4.276,4.276,0,0,1,62.421-4.449ZM7.7,27.554a23.544,23.544,0,0,1-.114-2.645V19.43a6.527,6.527,0,0,0,.723.342,41.783,41.783,0,0,1,6.374,3.463l1.56-2.74a45.852,45.852,0,0,0-8.657-4V13.608a16.762,16.762,0,0,1,.114-2.55H4.6a16.611,16.611,0,0,1,.114,2.55V24.872A19.663,19.663,0,0,1,4.6,27.554ZM20.62,16.062a19.72,19.72,0,0,1,1.712,4.757l2.55-.78A22.145,22.145,0,0,0,23,15.377Zm4.148-.818a22.356,22.356,0,0,1,1.712,4.623l2.492-.761A18.814,18.814,0,0,0,27.127,14.6Zm6.545-.266a10.138,10.138,0,0,1-.342,2.188,10.712,10.712,0,0,1-4.243,6.6,13.524,13.524,0,0,1-3.349,1.75,8.236,8.236,0,0,1,1.808,2.264c3.006-1.522,4.7-2.873,6.05-4.814a17.573,17.573,0,0,0,2.492-6.3,6.729,6.729,0,0,1,.285-1.065Zm9.456-2.416a19.452,19.452,0,0,1-2.987-.133v2.911a22.308,22.308,0,0,1,2.949-.114h8.334a12.674,12.674,0,0,1-5.67,7.934A15.452,15.452,0,0,1,39.3,25.043a8.642,8.642,0,0,1,2.017,2.721,18.965,18.965,0,0,0,7.173-5,18.178,18.178,0,0,0,3.767-7.706l.076-.266h.076A2.112,2.112,0,1,0,50.3,12.523a6.926,6.926,0,0,1-.818.038Zm11.625-.818a.932.932,0,1,1-.932.932A.934.934,0,0,1,52.394,11.743Zm4,11.264a6.3,6.3,0,0,1,.476-.571c.989-1.1,2.036-2.378,2.93-3.558C61.337,16.8,61.337,16.8,61.66,16.8c.266,0,.457.114.8.495.59.685.59.685.8.932,1.294,1.5,1.294,1.5,1.712,1.979,1.846,2.036,3.958,4.186,5.537,5.594a6.6,6.6,0,0,1,.628.609l1.408-3.2a11.372,11.372,0,0,1-2.359-1.884,62.24,62.24,0,0,1-5.518-5.8,10.589,10.589,0,0,0-1.237-1.294,2.8,2.8,0,0,0-1.75-.666,3.608,3.608,0,0,0-2.8,1.731c-2.645,3.349-3.444,4.262-4.3,4.871Z" transform="translate(-11029.162 -22548.381)" fill="#fff"/>
  </g>
</svg>
